<?xml version="1.0"?><svg width="640" height="480" xmlns="http://www.w3.org/2000/svg">
 <title>search icon light grey</title>
 <metadata id="metadata12220">image/svg+xmlSergio Luiz Araujo Silvasearchiconsinformaticcomputer</metadata>
 <g>
  <title>Layer 1</title>
  <path d="m243.938995,116.085999c-43.272995,43.272003 -43.378998,114.158997 -0.106003,157.432007c36.66301,36.662994 93.202011,42.25 135.921005,16.765991l76.343994,74.235016c10.507019,10.197998 27.085022,9.820984 37.117004,-0.844025c10.03299,-10.664978 9.769989,-27.445984 -0.738007,-37.643982l-75.182983,-72.863998c26.360992,-42.847 21.007996,-100.045013 -16.028015,-137.081009c-43.27298,-43.272995 -114.054993,-43.272995 -157.326996,0l0,0zm31.739014,31.738998c26.10199,-26.101997 67.746002,-26.101997 93.847992,0c26.10199,26.102005 26.10199,67.746002 0,93.848007c-26.10199,26.10199 -67.746002,26.10199 -93.847992,0c-26.102005,-26.102005 -26.102005,-67.746002 0,-93.848007z" stroke-width="9.75617" fill="#bfbfbf" id="path12423"/>
 </g>
</svg>